{"glyphs":{"0":{"ha":932,"x_min":64,"x_max":865,"o":"m 374 677 l 671 677 q 863 549 865 686 l 863 130 q 701 0 857 7 l 297 0 l 309 93 l 589 93 q 698 170 701 92 l 698 516 q 597 583 699 580 l 327 583 l 374 677 m 557 1 l 258 -1 q 68 128 64 -7 l 68 549 q 231 678 75 671 l 634 678 l 623 583 l 342 583 q 233 508 231 585 l 233 157 q 332 94 231 98 l 601 95 l 557 1 m 142 195 l 363 225 q 400 279 402 239 l 400 347 l 522 429 l 522 266 q 461 191 519 218 l 142 140 l 142 195 m 780 486 l 559 456 q 522 401 520 441 l 522 334 l 400 252 l 400 415 q 461 490 403 463 l 780 541 l 780 486 z "},"1":{"ha":658,"x_min":68,"x_max":590,"o":"m 336 -111 q 492 1 322 -9 l 590 1 l 590 56 l 404 56 l 404 513 l 254 401 l 254 -111 l 336 -111 m 322 789 q 166 677 336 687 l 68 677 l 68 623 l 254 623 l 254 165 l 404 277 l 404 789 l 322 789 z "},"2":{"ha":883,"x_min":67,"x_max":818,"o":"m 817 79 l 817 158 q 787 191 817 191 l 739 191 q 712 164 709 190 q 634 90 708 89 l 234 90 l 234 216 q 251 250 235 237 l 736 503 q 817 623 817 552 l 817 774 q 718 882 818 882 l 168 882 q 67 785 70 882 l 67 683 q 102 651 69 648 l 127 650 q 234 738 236 650 l 234 766 q 275 815 234 814 l 604 815 q 651 771 650 811 l 651 652 q 621 605 651 624 l 112 324 q 68 237 68 297 l 68 22 q 96 0 68 0 l 743 0 q 817 79 817 -1 z "},"3":{"ha":851,"x_min":20,"x_max":788,"o":"m 20 678 l 20 631 q 68 579 71 635 l 68 420 q 109 374 68 377 l 169 374 q 212 420 213 377 l 212 538 q 264 604 212 600 l 553 604 q 617 530 622 605 l 617 335 q 566 277 620 277 l 393 277 q 363 247 362 277 l 363 210 q 393 186 364 186 l 559 186 q 617 134 617 187 l 617 -64 q 534 -125 621 -123 l 273 -125 q 213 -72 210 -130 l 213 -30 q 173 1 210 -3 l 114 1 q 68 -37 68 3 l 68 -107 q 212 -202 68 -203 l 646 -202 q 785 -94 781 -209 l 785 134 q 698 224 788 218 q 785 316 786 235 l 785 564 q 662 678 787 678 l 20 678 z "},"4":{"ha":915,"x_min":68,"x_max":847,"o":"m 606 882 l 68 63 l 68 0 l 642 0 l 642 -88 l 847 -88 l 847 263 l 642 77 l 299 77 l 816 882 l 606 882 z "},"5":{"ha":804,"x_min":68,"x_max":736,"o":"m 736 1 l 736 293 q 654 384 732 370 l 231 384 l 332 296 l 566 296 q 583 273 587 296 l 583 96 l 170 96 q 149 113 149 92 l 149 133 q 109 180 146 184 q 68 140 75 184 l 68 1 l 736 1 m 68 678 l 68 387 q 149 294 71 308 l 573 294 l 471 382 l 237 382 q 220 407 217 382 l 220 583 l 634 583 q 654 566 654 586 l 654 545 q 695 498 658 495 q 736 538 729 495 l 736 678 l 68 678 z "},"6":{"ha":922,"x_min":77,"x_max":868,"o":"m 672 879 l 270 879 q 77 746 77 886 l 79 125 q 242 -3 86 3 l 719 -3 q 861 119 868 3 l 862 456 q 659 585 842 581 l 355 585 q 248 510 264 576 l 248 723 q 345 784 243 780 l 628 784 l 672 879 m 248 411 q 336 486 249 483 l 593 486 q 684 411 688 481 l 684 156 q 583 84 681 84 l 343 84 q 248 170 238 84 l 248 411 z "},"7":{"ha":916,"x_min":68,"x_max":847,"o":"m 309 -203 l 847 615 l 847 677 l 273 677 l 273 766 l 68 766 l 68 414 l 273 602 l 616 602 l 99 -203 l 309 -203 z "},"8":{"ha":807,"x_min":68,"x_max":743,"o":"m 536 677 l 505 581 l 264 581 q 237 560 236 581 l 237 486 q 298 408 234 437 l 536 323 l 408 307 l 176 347 q 68 449 68 388 l 68 608 q 152 678 71 678 l 536 677 m 659 678 q 743 608 739 678 l 743 449 q 634 347 742 388 l 407 307 l 271 323 l 509 408 q 570 486 573 437 l 570 560 q 543 581 571 581 l 302 581 l 271 677 l 659 678 m 152 -1 q 68 69 71 -1 l 68 228 q 176 330 68 289 l 400 369 l 536 354 l 298 269 q 237 191 234 240 l 237 117 q 264 96 236 97 l 505 96 l 536 0 l 152 -1 m 271 0 l 302 96 l 543 96 q 570 117 571 97 l 570 191 q 509 269 573 240 l 271 354 l 399 370 l 634 330 q 743 228 742 289 l 743 69 q 659 -1 739 -1 l 271 0 z "},"9":{"ha":929,"x_min":71,"x_max":863,"o":"m 267 -204 l 669 -204 q 863 -72 863 -211 l 860 549 q 697 677 853 671 l 220 677 q 78 555 71 671 l 77 219 q 281 90 98 94 l 585 90 q 691 165 675 98 l 691 -48 q 595 -109 696 -106 l 311 -109 l 267 -204 m 691 264 q 603 189 690 191 l 347 189 q 255 264 252 193 l 255 518 q 357 590 258 590 l 596 590 q 691 505 701 590 l 691 264 z "}," ":{"ha":339,"x_min":0,"x_max":0,"o":""},"!":{"ha":169,"x_min":0,"x_max":0,"o":""},"\"":{"ha":161,"x_min":0,"x_max":0,"o":""},"#":{"ha":431,"x_min":0,"x_max":0,"o":""},"$":{"ha":431,"x_min":0,"x_max":0,"o":""},"%":{"ha":431,"x_min":0,"x_max":0,"o":""},"&":{"ha":851,"x_min":63,"x_max":831,"o":"m 831 -3 l 831 44 q 783 96 780 41 l 783 255 q 743 300 783 298 l 682 301 q 639 255 638 298 l 639 137 q 587 72 640 75 l 298 72 q 234 144 229 70 l 234 340 q 285 398 231 399 l 458 399 q 488 429 489 399 l 488 465 q 458 490 487 489 l 292 490 q 234 541 234 488 l 234 739 q 317 800 230 799 l 578 800 q 638 747 642 805 l 638 705 q 678 673 641 678 l 737 673 q 783 711 783 673 l 783 782 q 640 877 783 879 l 205 877 q 66 768 70 884 l 66 541 q 153 451 63 456 q 66 359 65 441 l 66 111 q 189 -3 64 -3 l 831 -3 z "},"'":{"ha":370,"x_min":68,"x_max":312,"o":"m 312 836 l 258 836 l 258 728 q 200 674 256 674 l 125 674 q 68 617 68 673 l 68 534 q 134 491 71 492 l 254 490 q 312 538 312 492 l 312 836 z "},"(":{"ha":228,"x_min":0,"x_max":0,"o":""},")":{"ha":260,"x_min":0,"x_max":0,"o":""},"*":{"ha":334,"x_min":0,"x_max":0,"o":""},"+":{"ha":431,"x_min":0,"x_max":0,"o":""},",":{"ha":380,"x_min":68,"x_max":312,"o":"m 68 -161 l 122 -161 l 122 -53 q 180 1 123 1 l 254 1 q 312 58 312 1 l 312 141 q 245 184 309 183 l 125 184 q 68 137 68 183 l 68 -161 z "},"-":{"ha":583,"x_min":71,"x_max":515,"o":"m 71 374 l 71 307 l 515 307 l 515 374 l 71 374 z "},".":{"ha":136,"x_min":0,"x_max":0,"o":""},"/":{"ha":242,"x_min":0,"x_max":0,"o":""},":":{"ha":157,"x_min":0,"x_max":0,"o":""},";":{"ha":161,"x_min":0,"x_max":0,"o":""},"<":{"ha":431,"x_min":0,"x_max":0,"o":""},"=":{"ha":431,"x_min":0,"x_max":0,"o":""},">":{"ha":431,"x_min":0,"x_max":0,"o":""},"?":{"ha":385,"x_min":0,"x_max":0,"o":""},"@":{"ha":393,"x_min":0,"x_max":0,"o":""},"A":{"ha":413,"x_min":0,"x_max":0,"o":""},"B":{"ha":429,"x_min":0,"x_max":0,"o":""},"C":{"ha":494,"x_min":0,"x_max":0,"o":""},"D":{"ha":450,"x_min":0,"x_max":0,"o":""},"E":{"ha":926,"x_min":58,"x_max":865,"o":"m 328 268 l 732 326 q 854 441 865 339 l 854 547 q 692 676 848 669 l 207 676 q 63 562 70 677 l 66 408 l 157 406 q 234 467 240 402 q 304 593 231 597 l 580 593 q 686 507 692 595 l 686 469 q 590 407 692 410 l 328 365 l 328 268 m 595 407 l 190 349 q 68 233 58 335 l 68 127 q 231 -1 75 5 l 715 -1 q 859 113 852 -3 l 856 266 l 765 269 q 688 208 682 273 q 618 81 691 77 l 342 81 q 237 168 231 80 l 237 205 q 332 267 231 264 l 595 309 l 595 407 z "},"F":{"ha":395,"x_min":0,"x_max":0,"o":""},"G":{"ha":587,"x_min":0,"x_max":0,"o":""},"H":{"ha":468,"x_min":0,"x_max":0,"o":""},"I":{"ha":159,"x_min":0,"x_max":0,"o":""},"J":{"ha":389,"x_min":0,"x_max":0,"o":""},"K":{"ha":437,"x_min":0,"x_max":0,"o":""},"L":{"ha":387,"x_min":0,"x_max":0,"o":""},"M":{"ha":1282,"x_min":-18,"x_max":1297,"o":"m 566 427 l 566 122 q 644 1 566 2 l 713 1 q 768 62 758 2 l 758 140 q 715 189 711 121 l 715 522 l 566 427 m 754 27 l 986 557 l 983 646 l 757 140 l 754 27 m -18 677 l -18 616 l 27 617 q 102 555 97 617 l 102 121 q 181 1 103 1 l 250 0 q 304 62 294 1 l 294 134 q 252 183 248 115 l 252 636 q 197 677 252 677 l -18 677 m 1297 0 l 1297 62 l 1252 60 q 1177 123 1182 60 l 1177 556 q 1098 678 1176 675 l 1029 678 q 975 616 985 675 l 985 555 q 1028 506 1032 574 l 1028 42 q 1082 0 1027 0 l 1297 0 m 715 252 l 715 556 q 636 676 714 676 l 567 677 q 513 616 523 676 l 523 553 q 566 504 570 572 l 566 156 l 715 252 m 290 20 l 522 551 l 530 662 l 293 133 l 290 20 z "},"N":{"ha":415,"x_min":0,"x_max":0,"o":""},"O":{"ha":472,"x_min":0,"x_max":0,"o":""},"P":{"ha":385,"x_min":0,"x_max":0,"o":""},"Q":{"ha":547,"x_min":0,"x_max":0,"o":""},"R":{"ha":882,"x_min":0,"x_max":0,"o":""},"S":{"ha":421,"x_min":0,"x_max":0,"o":""},"T":{"ha":431,"x_min":0,"x_max":0,"o":""},"U":{"ha":448,"x_min":0,"x_max":0,"o":""},"V":{"ha":422,"x_min":0,"x_max":0,"o":""},"W":{"ha":570,"x_min":0,"x_max":0,"o":""},"X":{"ha":370,"x_min":0,"x_max":0,"o":""},"Y":{"ha":882,"x_min":0,"x_max":0,"o":""},"Z":{"ha":814,"x_min":0,"x_max":678,"o":"m 0 678 l 0 441 l 68 441 q 102 475 102 441 l 102 509 q 170 576 102 576 l 509 576 l 509 509 q 481 461 509 475 l 58 302 q 0 203 0 271 l 0 0 l 678 0 l 678 237 l 610 237 q 576 203 576 237 l 576 170 q 509 102 576 102 l 170 102 l 170 170 q 202 222 170 203 l 621 376 q 678 475 678 407 l 678 678 l 0 678 z "},"[":{"ha":191,"x_min":0,"x_max":0,"o":""},"\\":{"ha":216,"x_min":0,"x_max":0,"o":""},"]":{"ha":212,"x_min":0,"x_max":0,"o":""},"^":{"ha":224,"x_min":0,"x_max":0,"o":""},"_":{"ha":332,"x_min":0,"x_max":0,"o":""},"`":{"ha":242,"x_min":0,"x_max":0,"o":""},"a":{"ha":949,"x_min":0,"x_max":814,"o":"m 0 475 l 0 543 q 203 678 0 678 l 610 678 q 814 543 814 678 l 814 136 q 610 0 814 0 l 203 0 q 0 136 0 0 l 0 271 q 203 407 0 407 l 576 407 q 644 475 644 407 l 644 509 q 543 576 644 576 l 271 576 q 170 509 170 576 q 136 475 170 475 l 0 475 m 644 339 q 610 305 644 305 l 271 305 q 170 237 170 305 l 170 170 q 271 102 170 102 l 543 102 q 644 170 644 102 l 644 339 z "},"b":{"ha":882,"x_min":0,"x_max":814,"o":"m 0 882 l 0 814 l 51 814 q 102 763 102 814 l 102 136 q 305 0 102 0 l 610 0 q 814 136 814 0 l 814 543 q 610 678 814 678 l 407 678 q 271 583 305 678 l 271 814 q 203 882 271 882 l 0 882 m 271 446 q 407 576 288 576 l 543 576 q 644 530 644 576 l 644 170 q 543 102 644 102 l 373 102 q 271 170 271 102 l 271 446 z "},"c":{"ha":949,"x_min":0,"x_max":814,"o":"m 814 237 l 814 136 q 610 0 814 0 l 203 0 q 0 136 0 0 l 0 543 q 203 678 0 678 l 610 678 q 814 543 814 678 l 814 441 l 729 441 q 644 509 644 441 q 557 576 644 576 l 271 576 q 170 509 170 576 l 170 170 q 271 102 170 102 l 551 102 q 644 170 644 102 q 729 237 644 237 l 814 237 z "},"d":{"ha":913,"x_min":0,"x_max":848,"o":"m 576 610 l 576 759 q 526 821 576 823 l 475 820 l 475 882 l 678 882 q 746 814 746 882 l 746 119 q 797 68 746 68 l 848 68 l 848 0 l 644 0 q 576 68 576 0 l 576 271 q 521 151 553 199 q 418 49 489 103 q 136 0 347 -5 q 0 136 0 0 l 0 543 q 203 678 0 678 l 509 678 q 576 610 576 678 m 576 509 q 509 576 576 576 l 271 576 q 170 509 170 576 l 170 170 q 237 102 170 102 q 475 236 373 102 q 576 509 576 370 z "},"e":{"ha":949,"x_min":0,"x_max":814,"o":"m 814 203 l 814 136 q 610 0 814 0 l 203 0 q 0 136 0 0 l 0 543 q 203 678 0 678 l 610 678 q 814 543 814 678 l 814 407 q 610 271 814 271 l 237 271 q 170 203 170 271 l 170 170 q 271 102 170 102 l 543 102 q 644 170 644 102 q 678 203 644 203 l 814 203 m 170 339 q 203 373 170 373 l 543 373 q 644 441 644 373 l 644 509 q 543 576 644 576 l 271 576 q 170 509 170 576 l 170 339 z "},"f":{"ha":522,"x_min":-91,"x_max":610,"o":"m 455 295 l 455 377 l 66 377 l 66 295 l 455 295 m 104 -129 q 56 -85 55 -121 q 1 -42 60 -43 l -90 -43 l -91 -126 q 18 -203 -75 -203 l 237 -203 q 332 -81 338 -203 l 332 516 l 185 394 l 184 -71 q 120 -129 184 -131 l 104 -129 m 414 809 q 462 766 464 802 q 517 722 458 724 l 609 724 l 610 807 q 500 884 593 883 l 281 884 q 187 761 181 884 l 187 164 l 334 286 l 334 752 q 399 809 334 812 l 414 809 z "},"g":{"ha":882,"x_min":0,"x_max":746,"o":"m 559 882 l 712 882 q 746 848 746 882 q 712 814 746 814 l 627 814 q 576 763 576 814 l 667 763 q 746 695 746 763 l 746 441 q 678 373 746 373 l 441 373 l 441 305 l 678 305 q 746 237 746 305 l 746 -17 q 678 -85 746 -85 l 237 -85 l 170 -85 l 68 -85 q 0 -17 0 -85 l 0 237 q 68 305 0 305 l 305 305 l 305 373 l 68 373 q 0 441 0 373 l 0 695 q 68 763 0 763 l 509 763 l 509 831 q 559 882 509 882 m 237 695 q 170 628 170 695 l 170 509 q 237 441 170 441 l 305 441 l 305 500 l 441 500 l 441 441 l 509 441 q 576 509 576 441 l 576 626 q 509 695 576 695 l 237 695 m 237 237 q 170 170 170 237 l 170 41 q 237 -17 170 -17 l 509 -17 q 576 47 576 -17 l 576 174 q 509 237 576 237 l 441 237 l 441 182 l 305 182 l 305 237 l 237 237 z "},"h":{"ha":848,"x_min":0,"x_max":848,"o":"m 0 882 l 203 882 q 271 814 271 882 l 271 239 l 543 627 q 644 678 576 678 l 678 678 q 746 610 746 678 l 746 119 q 797 68 746 68 l 848 68 l 848 0 l 667 0 q 576 68 576 0 l 576 509 q 535 524 576 576 l 170 0 l 102 0 l 102 763 q 51 814 102 814 l 0 814 l 0 882 z "},"i":{"ha":373,"x_min":0,"x_max":373,"o":"m 0 678 l 203 678 q 271 610 271 678 l 271 136 q 322 68 271 68 l 373 68 l 373 0 l 170 0 q 102 68 102 0 l 102 543 q 51 610 102 610 l 0 610 l 0 678 m 305 882 l 305 848 q 237 780 305 780 l 203 780 q 170 746 170 780 l 170 712 l 136 712 l 136 814 q 203 882 136 882 l 305 882 z "},"j":{"ha":644,"x_min":-68,"x_max":543,"o":"m 441 678 q 509 610 509 678 l 509 -136 q 407 -203 509 -203 l 34 -203 q -68 -136 -68 -203 l -68 -34 l 68 -34 q 102 -68 102 -34 l 102 -102 q 136 -136 102 -136 l 305 -136 q 339 -102 339 -136 l 339 559 q 275 610 339 610 l 229 610 l 229 678 l 441 678 m 543 882 l 543 848 q 475 780 543 780 l 441 780 q 407 746 407 780 l 407 712 l 373 712 l 373 814 q 441 882 373 882 l 543 882 z "},"k":{"ha":746,"x_min":0,"x_max":746,"o":"m 458 678 l 661 678 l 661 644 q 605 463 661 526 q 441 366 549 400 l 644 102 q 695 68 661 68 l 746 68 l 746 0 l 576 0 q 475 68 509 0 l 271 339 l 271 119 q 322 68 271 68 l 373 68 l 373 0 l 170 0 q 102 68 102 0 l 102 780 q 51 814 102 814 l 0 814 l 0 882 l 203 882 q 271 814 271 882 l 271 407 q 470 459 407 417 q 549 573 532 502 q 509 610 559 610 l 458 610 l 458 678 z "},"l":{"ha":373,"x_min":0,"x_max":373,"o":"m 0 882 l 203 882 q 271 814 271 882 l 271 -68 q 322 -136 271 -136 l 373 -136 l 373 -203 l 170 -203 q 102 -136 102 -203 l 102 746 q 51 814 102 814 l 0 814 l 0 882 z "},"m":{"ha":1153,"x_min":0,"x_max":1017,"o":"m 339 0 l 203 0 q 0 136 0 0 l 0 543 q 203 678 0 678 l 407 678 q 509 576 509 678 q 610 678 509 678 l 814 678 q 1017 543 1017 678 l 1017 136 q 814 0 1017 0 l 678 0 l 678 102 l 746 102 q 848 170 848 102 l 848 509 q 746 576 848 576 l 661 576 q 593 509 593 576 l 593 305 q 509 251 593 254 q 424 306 424 252 l 424 509 q 356 576 424 576 l 271 576 q 170 509 170 576 l 170 170 q 271 102 170 102 l 339 102 l 339 0 z "},"n":{"ha":848,"x_min":0,"x_max":848,"o":"m 0 678 l 203 678 q 271 610 271 678 l 271 239 l 543 627 q 644 678 576 678 l 678 678 q 746 610 746 678 l 746 119 q 797 68 746 68 l 848 68 l 848 0 l 667 0 q 576 68 576 0 l 576 509 q 535 524 576 576 l 170 0 l 102 0 l 102 559 q 51 610 102 610 l 0 610 l 0 678 z "},"o":{"ha":946,"x_min":0,"x_max":814,"o":"m 543 576 l 271 576 q 170 509 170 576 l 170 170 q 271 102 170 102 l 543 102 q 644 170 644 102 l 644 509 q 543 576 644 576 m 203 0 q 0 136 0 0 l 0 543 q 203 678 0 678 l 610 678 q 814 543 814 678 l 814 136 q 610 0 814 0 l 203 0 z "},"p":{"ha":916,"x_min":0,"x_max":848,"o":"m 271 68 l 271 -81 q 322 -143 271 -145 l 373 -142 l 373 -203 l 170 -203 q 102 -136 102 -203 l 102 559 q 51 610 102 610 l 0 610 l 0 678 l 203 678 q 271 610 271 678 l 271 407 q 327 527 295 479 q 430 629 359 575 q 712 678 501 684 q 848 543 848 678 l 848 136 q 644 0 848 0 l 339 0 q 271 68 271 0 m 271 170 q 339 102 271 102 l 576 102 q 678 170 678 102 l 678 509 q 610 576 678 576 q 373 443 475 576 q 271 170 271 309 z "},"q":{"ha":878,"x_min":0,"x_max":814,"o":"m 814 -203 l 814 -136 l 763 -136 q 712 -85 712 -136 l 712 543 q 509 678 712 678 l 203 678 q 0 543 0 678 l 0 136 q 203 0 0 0 l 407 0 q 543 95 509 0 l 543 -136 q 610 -203 543 -203 l 814 -203 m 543 232 q 407 102 526 102 l 271 102 q 170 148 170 102 l 170 509 q 271 576 170 576 l 441 576 q 543 509 543 576 l 543 232 z "},"r":{"ha":643,"x_min":0,"x_max":576,"o":"m 68 0 q 0 68 0 0 l 0 814 q 102 882 0 882 l 475 882 q 576 814 576 882 l 576 712 l 441 712 q 407 746 407 712 l 407 780 q 373 814 407 814 l 203 814 q 170 780 170 814 l 170 119 q 234 68 170 68 l 279 68 l 279 0 l 68 0 z "},"s":{"ha":882,"x_min":0,"x_max":746,"o":"m 203 305 q 0 441 0 339 l 0 543 q 203 678 0 678 l 543 678 q 746 543 746 678 l 746 441 l 644 441 q 576 509 576 441 q 475 576 576 576 l 271 576 q 170 509 170 576 q 237 434 170 441 l 543 373 q 746 237 746 339 l 746 136 q 543 0 746 0 l 203 0 q 0 136 0 0 l 0 237 l 102 237 q 170 170 170 237 q 271 102 170 102 l 475 102 q 576 170 576 102 q 509 244 576 237 l 203 305 z "},"t":{"ha":475,"x_min":0,"x_max":373,"o":"m 0 882 l 203 882 q 271 814 271 882 l 271 373 l 373 373 l 373 305 l 271 305 l 271 -68 q 322 -136 271 -136 l 373 -136 l 373 -203 l 170 -203 q 102 -136 102 -203 l 102 305 l 0 305 l 0 373 l 102 373 l 102 746 q 51 814 102 814 l 0 814 l 0 882 z "},"u":{"ha":848,"x_min":0,"x_max":848,"o":"m 848 0 l 644 0 q 576 68 576 0 l 576 439 l 305 51 q 203 0 271 0 l 170 0 q 102 68 102 0 l 102 559 q 51 610 102 610 l 0 610 l 0 678 l 180 678 q 271 610 271 678 l 271 170 q 313 155 271 102 l 678 678 l 746 678 l 746 119 q 797 68 746 68 l 848 68 l 848 0 z "},"v":{"ha":797,"x_min":0,"x_max":730,"o":"m 0 678 l 0 593 q 102 559 102 627 l 102 68 q 170 0 102 0 l 220 0 q 461 43 363 0 q 628 175 559 85 q 714 359 698 264 q 729 678 730 454 l 627 678 q 627 546 627 644 q 614 373 627 448 q 554 239 602 299 q 441 140 507 178 q 322 102 375 102 q 305 102 313 102 q 271 136 271 102 l 271 610 q 203 678 271 678 l 0 678 z "},"w":{"ha":1153,"x_min":0,"x_max":1017,"o":"m 678 678 l 814 678 q 1017 543 1017 678 l 1017 136 q 814 0 1017 0 l 610 0 q 509 102 509 0 q 407 0 509 0 l 203 0 q 0 136 0 0 l 0 543 q 203 678 0 678 l 339 678 l 339 576 l 271 576 q 170 509 170 576 l 170 170 q 271 102 170 102 l 356 102 q 424 170 424 102 l 424 373 q 509 427 424 424 q 593 372 593 426 l 593 170 q 661 102 593 102 l 746 102 q 848 170 848 102 l 848 509 q 746 576 848 576 l 678 576 l 678 678 z "},"x":{"ha":747,"x_min":0,"x_max":746,"o":"m 271 0 l 68 0 q 119 203 68 119 q 271 339 170 288 l 102 576 q 51 610 85 610 l 0 610 l 0 678 l 170 678 q 271 610 237 678 l 424 407 q 509 466 475 424 q 559 559 543 509 q 526 610 576 610 l 475 610 l 475 678 l 678 678 q 627 475 678 559 q 475 339 576 390 l 644 102 q 695 68 661 68 l 746 68 l 746 0 l 576 0 q 475 68 509 0 l 322 271 q 237 212 271 254 q 186 119 203 170 q 220 68 170 68 l 271 68 l 271 0 z "},"y":{"ha":848,"x_min":0,"x_max":848,"o":"m 848 -203 l 644 -203 q 576 -136 576 -203 l 576 439 l 305 51 q 203 0 271 0 l 170 0 q 102 68 102 0 l 102 559 q 51 610 102 610 l 0 610 l 0 678 l 180 678 q 271 610 271 678 l 271 170 q 313 155 271 102 l 678 678 l 746 678 l 746 -85 q 797 -136 746 -136 l 848 -136 l 848 -203 z "},"z":{"ha":883,"x_min":67,"x_max":818,"o":"m 68 598 l 68 519 q 98 487 68 487 l 146 487 q 173 514 176 488 q 251 589 177 589 l 651 589 l 651 461 q 634 427 651 441 l 149 175 q 68 54 68 126 l 68 -97 q 168 -203 67 -205 l 718 -203 q 818 -107 815 -203 l 818 -5 q 783 27 816 30 l 758 27 q 651 -60 649 28 l 651 -89 q 610 -137 651 -137 l 281 -137 q 234 -94 235 -133 l 234 26 q 264 73 233 54 l 773 354 q 817 441 817 381 l 817 656 q 789 678 817 678 l 142 678 q 68 598 68 678 z "},"{":{"ha":1322,"x_min":0,"x_max":0,"o":""},"|":{"ha":136,"x_min":0,"x_max":0,"o":""},"}":{"ha":1322,"x_min":0,"x_max":0,"o":""},"~":{"ha":431,"x_min":0,"x_max":0,"o":""},"Ä":{"ha":413,"x_min":0,"x_max":0,"o":""},"Å":{"ha":413,"x_min":0,"x_max":0,"o":""},"Ç":{"ha":494,"x_min":0,"x_max":0,"o":""},"É":{"ha":439,"x_min":0,"x_max":0,"o":""},"Ñ":{"ha":415,"x_min":0,"x_max":0,"o":""},"Ö":{"ha":472,"x_min":0,"x_max":0,"o":""},"Ü":{"ha":448,"x_min":0,"x_max":0,"o":""},"á":{"ha":250,"x_min":0,"x_max":0,"o":""},"à":{"ha":250,"x_min":0,"x_max":0,"o":""},"â":{"ha":250,"x_min":0,"x_max":0,"o":""},"ä":{"ha":250,"x_min":0,"x_max":0,"o":""},"ã":{"ha":250,"x_min":0,"x_max":0,"o":""},"å":{"ha":250,"x_min":0,"x_max":0,"o":""},"ç":{"ha":346,"x_min":0,"x_max":0,"o":""},"é":{"ha":330,"x_min":0,"x_max":0,"o":""},"è":{"ha":330,"x_min":0,"x_max":0,"o":""},"ê":{"ha":330,"x_min":0,"x_max":0,"o":""},"ë":{"ha":330,"x_min":0,"x_max":0,"o":""},"í":{"ha":159,"x_min":0,"x_max":0,"o":""},"ì":{"ha":159,"x_min":0,"x_max":0,"o":""},"î":{"ha":159,"x_min":0,"x_max":0,"o":""},"ï":{"ha":159,"x_min":0,"x_max":0,"o":""},"ñ":{"ha":260,"x_min":0,"x_max":0,"o":""},"ó":{"ha":248,"x_min":0,"x_max":0,"o":""},"ò":{"ha":248,"x_min":0,"x_max":0,"o":""},"ô":{"ha":248,"x_min":0,"x_max":0,"o":""},"ö":{"ha":248,"x_min":0,"x_max":0,"o":""},"õ":{"ha":248,"x_min":0,"x_max":0,"o":""},"ú":{"ha":232,"x_min":0,"x_max":0,"o":""},"ù":{"ha":232,"x_min":0,"x_max":0,"o":""},"û":{"ha":232,"x_min":0,"x_max":0,"o":""},"ü":{"ha":232,"x_min":0,"x_max":0,"o":""},"†":{"ha":306,"x_min":0,"x_max":0,"o":""},"°":{"ha":193,"x_min":0,"x_max":0,"o":""},"¢":{"ha":431,"x_min":0,"x_max":0,"o":""},"£":{"ha":431,"x_min":0,"x_max":0,"o":""},"§":{"ha":285,"x_min":0,"x_max":0,"o":""},"•":{"ha":262,"x_min":0,"x_max":0,"o":""},"¶":{"ha":305,"x_min":0,"x_max":0,"o":""},"ß":{"ha":338,"x_min":0,"x_max":0,"o":""},"®":{"ha":507,"x_min":0,"x_max":0,"o":""},"©":{"ha":484,"x_min":0,"x_max":0,"o":""},"™":{"ha":462,"x_min":0,"x_max":0,"o":""},"´":{"ha":313,"x_min":0,"x_max":0,"o":""},"¨":{"ha":252,"x_min":0,"x_max":0,"o":""},"Æ":{"ha":555,"x_min":0,"x_max":0,"o":""},"Ø":{"ha":472,"x_min":0,"x_max":0,"o":""},"±":{"ha":431,"x_min":0,"x_max":0,"o":""},"¥":{"ha":431,"x_min":0,"x_max":0,"o":""},"µ":{"ha":285,"x_min":0,"x_max":0,"o":""},"ª":{"ha":273,"x_min":0,"x_max":0,"o":""},"º":{"ha":273,"x_min":0,"x_max":0,"o":""},"æ":{"ha":507,"x_min":0,"x_max":0,"o":""},"ø":{"ha":248,"x_min":0,"x_max":0,"o":""},"¿":{"ha":385,"x_min":0,"x_max":0,"o":""},"¡":{"ha":210,"x_min":0,"x_max":0,"o":""},"¬":{"ha":946,"x_min":0,"x_max":0,"o":""},"ƒ":{"ha":391,"x_min":0,"x_max":0,"o":""},"«":{"ha":366,"x_min":0,"x_max":0,"o":""},"»":{"ha":366,"x_min":0,"x_max":0,"o":""},"…":{"ha":537,"x_min":0,"x_max":0,"o":""}," ":{"ha":338,"x_min":0,"x_max":0,"o":""},"À":{"ha":413,"x_min":0,"x_max":0,"o":""},"Ã":{"ha":413,"x_min":0,"x_max":0,"o":""},"Õ":{"ha":472,"x_min":0,"x_max":0,"o":""},"Œ":{"ha":647,"x_min":0,"x_max":0,"o":""},"œ":{"ha":513,"x_min":0,"x_max":0,"o":""},"–":{"ha":464,"x_min":0,"x_max":0,"o":""},"—":{"ha":606,"x_min":0,"x_max":0,"o":""},"“":{"ha":232,"x_min":0,"x_max":0,"o":""},"”":{"ha":203,"x_min":0,"x_max":0,"o":""},"‘":{"ha":161,"x_min":0,"x_max":0,"o":""},"’":{"ha":163,"x_min":0,"x_max":0,"o":""},"÷":{"ha":431,"x_min":0,"x_max":0,"o":""},"ÿ":{"ha":267,"x_min":0,"x_max":0,"o":""},"Ÿ":{"ha":357,"x_min":0,"x_max":0,"o":""},"¤":{"ha":285,"x_min":0,"x_max":0,"o":""},"‹":{"ha":218,"x_min":0,"x_max":0,"o":""},"›":{"ha":218,"x_min":0,"x_max":0,"o":""},"‡":{"ha":228,"x_min":0,"x_max":0,"o":""},"·":{"ha":140,"x_min":0,"x_max":0,"o":""},"‚":{"ha":159,"x_min":0,"x_max":0,"o":""},"„":{"ha":273,"x_min":0,"x_max":0,"o":""},"‰":{"ha":494,"x_min":0,"x_max":0,"o":""},"Â":{"ha":413,"x_min":0,"x_max":0,"o":""},"Ê":{"ha":439,"x_min":0,"x_max":0,"o":""},"Á":{"ha":413,"x_min":0,"x_max":0,"o":""},"Ë":{"ha":439,"x_min":0,"x_max":0,"o":""},"È":{"ha":439,"x_min":0,"x_max":0,"o":""},"Í":{"ha":159,"x_min":0,"x_max":0,"o":""},"Î":{"ha":159,"x_min":0,"x_max":0,"o":""},"Ï":{"ha":159,"x_min":0,"x_max":0,"o":""},"Ì":{"ha":159,"x_min":0,"x_max":0,"o":""},"Ó":{"ha":472,"x_min":0,"x_max":0,"o":""},"Ô":{"ha":472,"x_min":0,"x_max":0,"o":""},"Ò":{"ha":472,"x_min":0,"x_max":0,"o":""},"Ú":{"ha":448,"x_min":0,"x_max":0,"o":""},"Û":{"ha":448,"x_min":0,"x_max":0,"o":""},"Ù":{"ha":448,"x_min":0,"x_max":0,"o":""},"ˆ":{"ha":244,"x_min":0,"x_max":0,"o":""},"˜":{"ha":328,"x_min":0,"x_max":0,"o":""},"¯":{"ha":244,"x_min":0,"x_max":0,"o":""},"¸":{"ha":218,"x_min":0,"x_max":0,"o":""},"Š":{"ha":421,"x_min":0,"x_max":0,"o":""},"š":{"ha":232,"x_min":0,"x_max":0,"o":""},"¦":{"ha":136,"x_min":0,"x_max":0,"o":""},"Ð":{"ha":450,"x_min":0,"x_max":0,"o":""},"ð":{"ha":328,"x_min":0,"x_max":0,"o":""},"Ý":{"ha":357,"x_min":0,"x_max":0,"o":""},"ý":{"ha":267,"x_min":0,"x_max":0,"o":""},"Þ":{"ha":391,"x_min":0,"x_max":0,"o":""},"þ":{"ha":236,"x_min":0,"x_max":0,"o":""},"­":{"ha":431,"x_min":0,"x_max":0,"o":""},"×":{"ha":431,"x_min":0,"x_max":0,"o":""},"¹":{"ha":203,"x_min":0,"x_max":0,"o":""},"²":{"ha":203,"x_min":0,"x_max":0,"o":""},"³":{"ha":203,"x_min":0,"x_max":0,"o":""},"½":{"ha":533,"x_min":0,"x_max":0,"o":""},"¼":{"ha":533,"x_min":0,"x_max":0,"o":""},"¾":{"ha":533,"x_min":0,"x_max":0,"o":""},"Ł":{"ha":387,"x_min":0,"x_max":0,"o":""},"ł":{"ha":144,"x_min":0,"x_max":0,"o":""},"Ž":{"ha":468,"x_min":0,"x_max":0,"o":""},"ž":{"ha":313,"x_min":0,"x_max":0,"o":""},"≠":{"ha":431,"x_min":0,"x_max":0,"o":""},"∞":{"ha":454,"x_min":0,"x_max":0,"o":""},"≤":{"ha":232,"x_min":0,"x_max":0,"o":""},"≥":{"ha":232,"x_min":0,"x_max":0,"o":""},"∂":{"ha":328,"x_min":0,"x_max":0,"o":""},"∑":{"ha":948,"x_min":0,"x_max":0,"o":""},"∏":{"ha":541,"x_min":0,"x_max":0,"o":""},"π":{"ha":541,"x_min":0,"x_max":0,"o":""},"∫":{"ha":948,"x_min":0,"x_max":0,"o":""},"Ω":{"ha":979,"x_min":0,"x_max":0,"o":""},"√":{"ha":555,"x_min":0,"x_max":0,"o":""},"≈":{"ha":431,"x_min":0,"x_max":0,"o":""},"Δ":{"ha":248,"x_min":0,"x_max":0,"o":""},"◊":{"ha":165,"x_min":0,"x_max":0,"o":""},"⁄":{"ha":159,"x_min":0,"x_max":0,"o":""},"":{"ha":356,"x_min":0,"x_max":0,"o":""},"":{"ha":326,"x_min":0,"x_max":0,"o":""},"":{"ha":399,"x_min":0,"x_max":0,"o":""},"ı":{"ha":159,"x_min":0,"x_max":0,"o":""},"˘":{"ha":244,"x_min":0,"x_max":0,"o":""},"˙":{"ha":124,"x_min":0,"x_max":0,"o":""},"˚":{"ha":244,"x_min":0,"x_max":0,"o":""},"˝":{"ha":317,"x_min":0,"x_max":0,"o":""},"˛":{"ha":183,"x_min":0,"x_max":0,"o":""},"ˇ":{"ha":244,"x_min":0,"x_max":0,"o":""}}}
